<svg
  xmlns="http://www.w3.org/2000/svg"
  xmlns:xlink="http://www.w3.org/1999/xlink"
  width="825"
  height="425"
>
  <rect width="825" height="425" rx="5" ry="5" class="a"/>

  <circle cx="20" cy="20" r="8.5" fill="#ff5f58"/>
  <circle cx="47" cy="20" r="8.5" fill="#ffbd2e"/>
  <circle cx="74" cy="20" r="8.5" fill="#18c132"/>

  <svg
    xmlns="http://www.w3.org/2000/svg"
    xmlns:xlink="http://www.w3.org/1999/xlink"
    height="434.2"
    width="800"
    viewBox="0 0 80 43.42"
    x="12.5"
    y="40"
  >
    <style>
      .a {fill: #141414}
      .g {fill: #a8ff60}
      .h {fill: #dfdfdf}
      .l {fill: #96cbfe}
      .m {fill: #ff6c60}
      .n {fill: #7c7c7c}
    </style>
    <g
      font-size="1.67"
      font-family="'Source Code Pro',Monaco,Consolas,Menlo,monospace"
    >
      <defs>
        <symbol id="a">
          <path fill="transparent" d="M0 0h80v20H0z"/>
        </symbol>
      </defs>
      <path class="a" d="M0 0h80v43.42H0z"/>
      <svg width="80">
        <svg>
          <use xlink:href="#a"/>
          <text y="3.841" class="g">~/P/transity</text>
          <text x="13.026" y="3.841" class="h">(master)</text>
          <text x="22.044" y="3.841" class="h">$</text>
          <text x="24.048" y="3.841" fill="#c397d8">transity</text>
          <text x="33.066" y="3.841" fill="#7aa6da">balance</text>
          <text x="41.082" y="3.841" fill="#7aa6da"
            text-decoration="underline">tests/ledger.yaml</text>
          <text x="10.02" y="6.012" class="l">anna</text>
          <text x="21.042" y="6.012" class="g">1</text>
          <text x="30.06" y="6.012" class="h">evil-machine</text>
          <text x="16.032" y="8.183" class="m">-49978</text>
          <text x="22.044" y="8.183" class="n">.02</text>
          <text x="30.06" y="8.183" class="h">€</text>
          <text x="11.022" y="10.354" class="l">ben</text>
          <text x="19.038" y="10.354" class="m">-50</text>
          <text x="30.06" y="10.354" class="h">$</text>
          <text x="20.04" y="12.525" class="m">-1</text>
          <text x="22.044" y="12.525" class="n">.432592</text>
          <text x="30.06" y="12.525" class="h">BTC</text>
          <text x="18.036" y="14.696" class="m">-100</text>
          <text x="30.06" y="14.696" class="h">€</text>
          <text x="5.01" y="16.867" class="l">evil-corp</text>
          <text x="20.04" y="16.867" class="m">-1</text>
          <text x="30.06" y="16.867" class="h">evil-machine</text>
          <text x="17.034" y="19.038" class="g">50015</text>
          <text x="30.06" y="19.038" class="h">€</text>
          <text x="6.012" y="21.209" class="l">good-inc</text>
          <text x="18.036" y="21.209" class="m">-100</text>
          <text x="30.06" y="21.209" class="h">€</text>
          <text x="2.004" y="23.38" class="l">grocery-shop</text>
          <text x="20.04" y="23.38" class="g">11</text>
          <text x="22.044" y="23.38" class="n">.97</text>
          <text x="30.06" y="23.38" class="h">€</text>
          <text x="5.01" y="25.551" class="l">john:giro</text>
          <text x="20.04" y="25.551" class="g">50</text>
          <text x="30.06" y="25.551" class="h">$</text>
          <text x="21.042" y="27.722" class="g">1</text>
          <text x="22.044" y="27.722" class="n">.432592</text>
          <text x="30.06" y="27.722" class="h">BTC</text>
          <text x="20.04" y="29.893" class="g">85</text>
          <text x="30.06" y="29.893" class="h">€</text>
          <text x="3.006" y="32.064" class="l">john:wallet</text>
          <text x="20.04" y="32.064" class="g">66</text>
          <text x="22.044" y="32.064" class="n">.05</text>
          <text x="30.06" y="32.064" class="h">€</text>
        </svg>
      </svg>
    </g>
  </svg>
</svg>
