<svg xmlns="http://www.w3.org/2000/svg" xmlns:xlink="http://www.w3.org/1999/xlink" width="840" height="494.2"><rect width="840" height="494.2" rx="5" ry="5" class="a"/><svg y="0%" x="0%"><circle cx="20" cy="20" r="6" fill="#ff5f58"/><circle cx="40" cy="20" r="6" fill="#ffbd2e"/><circle cx="60" cy="20" r="6" fill="#18c132"/></svg><svg height="434.2" viewBox="0 0 80 43.42" width="800" x="15" xmlns="http://www.w3.org/2000/svg" xmlns:xlink="http://www.w3.org/1999/xlink" y="50"><style>.a{fill:#141414}.g{fill:#dfdfdf}.k{fill:#a8ff60}.l{fill:#7c7c7c}</style><g font-size="1.67" font-family="Monaco,Consolas,Menlo,'Bitstream Vera Sans Mono','Powerline Symbols',monospace"><defs><symbol id="a"><path fill="transparent" d="M0 0h80v20H0z"/></symbol></defs><path class="a" d="M0 0h80v43.42H0z"/><svg width="80"><svg><use xlink:href="#a"/><text y="1.67" class="g">$</text><text x="2.004" y="1.67" fill="#c397d8">transity</text><text x="11.022" y="1.67" fill="#7aa6da">transfers</text><text x="21.042" y="1.67" fill="#7aa6da" text-decoration="underline">examples/journal.yaml</text><text y="6.012" class="g">Journal</text><text x="8.016" y="6.012" class="g">for</text><text x="12.024" y="6.012" class="g">&quot;john&quot;</text><text y="8.183" class="g">================================================================================</text><text y="10.354" class="g">2013-12-31</text><text x="11.022" y="10.354" class="g">12:00</text><text x="17.034" y="10.354" class="g">|</text><text x="26.052" y="10.354" class="g">good-inc</text><text x="35.07" y="10.354" class="g">-&gt;</text><text x="49.098" y="10.354" class="g">anna</text><text x="54.108" y="10.354" class="g">:</text><text x="58.116" y="10.354" class="k">500</text><text x="65.13" y="10.354" class="g">€</text><text x="76.152" y="10.354" class="g">|</text><text y="12.525" class="g">2014-02-17</text><text x="11.022" y="12.525" class="g">00:00</text><text x="17.034" y="12.525" class="g">|</text><text x="30.06" y="12.525" class="g">anna</text><text x="35.07" y="12.525" class="g">-&gt;</text><text x="44.088" y="12.525" class="g">evil-corp</text><text x="54.108" y="12.525" class="g">:</text><text x="58.116" y="12.525" class="k">300</text><text x="65.13" y="12.525" class="g">€</text><text x="76.152" y="12.525" class="g">|</text><text y="14.696" class="g">2014-03-05</text><text x="11.022" y="14.696" class="g">00:00</text><text x="17.034" y="14.696" class="g">|</text><text x="25.05" y="14.696" class="g">evil-corp</text><text x="35.07" y="14.696" class="g">-&gt;</text><text x="49.098" y="14.696" class="g">anna</text><text x="54.108" y="14.696" class="g">:</text><text x="60.12" y="14.696" class="k">1</text><text x="65.13" y="14.696" class="g">evil_machine</text><text x="78.156" y="14.696" class="g">|</text><text y="16.867" class="g">2014-12-24</text><text x="11.022" y="16.867" class="g">00:00</text><text x="17.034" y="16.867" class="g">|</text><text x="25.05" y="16.867" class="g">john:giro</text><text x="35.07" y="16.867" class="g">-&gt;</text><text x="44.088" y="16.867" class="g">evil-corp</text><text x="54.108" y="16.867" class="g">:</text><text x="59.118" y="16.867" class="k">15</text><text x="65.13" y="16.867" class="g">€</text><text x="76.152" y="16.867" class="g">|</text><text y="19.038" class="g">2015-01-04</text><text x="11.022" y="19.038" class="g">17:05</text><text x="17.034" y="19.038" class="g">|</text><text x="23.046" y="19.038" class="g">john:wallet</text><text x="35.07" y="19.038" class="g">-&gt;</text><text x="49.098" y="19.038" class="g">anna</text><text x="54.108" y="19.038" class="g">:</text><text x="59.118" y="19.038" class="k">33</text><text x="61.122" y="19.038" class="l">.95</text><text x="65.13" y="19.038" class="g">€</text><text x="76.152" y="19.038" class="g">|</text><text y="21.209" class="g">2015-01-05</text><text x="11.022" y="21.209" class="g">00:00</text><text x="17.034" y="21.209" class="g">|</text><text x="26.052" y="21.209" class="g">good-inc</text><text x="35.07" y="21.209" class="g">-&gt;</text><text x="42.084" y="21.209" class="g">john:wallet</text><text x="54.108" y="21.209" class="g">:</text><text x="58.116" y="21.209" class="k">100</text><text x="65.13" y="21.209" class="g">€</text><text x="76.152" y="21.209" class="g">|</text><text y="23.38" class="g">2015-01-07</text><text x="11.022" y="23.38" class="g">00:00</text><text x="17.034" y="23.38" class="g">|</text><text x="31.062" y="23.38" class="g">ben</text><text x="35.07" y="23.38" class="g">-&gt;</text><text x="44.088" y="23.38" class="g">john:giro</text><text x="54.108" y="23.38" class="g">:</text><text x="58.116" y="23.38" class="k">100</text><text x="65.13" y="23.38" class="g">€</text><text x="76.152" y="23.38" class="g">|</text><text y="25.551" class="g">2015-01-07</text><text x="11.022" y="25.551" class="g">00:00</text><text x="17.034" y="25.551" class="g">|</text><text x="31.062" y="25.551" class="g">ben</text><text x="35.07" y="25.551" class="g">-&gt;</text><text x="44.088" y="25.551" class="g">john:giro</text><text x="54.108" y="25.551" class="g">:</text><text x="59.118" y="25.551" class="k">50</text><text x="65.13" y="25.551" class="g">$</text><text x="76.152" y="25.551" class="g">|</text><text y="27.722" class="g">2015-03-07</text><text x="11.022" y="27.722" class="g">00:00</text><text x="17.034" y="27.722" class="g">|</text><text x="31.062" y="27.722" class="g">ben</text><text x="35.07" y="27.722" class="g">-&gt;</text><text x="44.088" y="27.722" class="g">john:giro</text><text x="54.108" y="27.722" class="g">:</text><text x="60.12" y="27.722" class="k">1</text><text x="61.122" y="27.722" class="l">.432592</text><text x="69.138" y="27.722" class="g">BTC</text><text y="29.893" class="g">|</text><text y="32.064" class="g">2015-07-05</text><text x="11.022" y="32.064" class="g">17:13</text><text x="17.034" y="32.064" class="g">|</text><text x="30.06" y="32.064" class="g">anna</text><text x="35.07" y="32.064" class="g">-&gt;</text><text x="41.082" y="32.064" class="g">grocery-shop</text><text x="54.108" y="32.064" class="g">:</text><text x="59.118" y="32.064" class="k">11</text><text x="61.122" y="32.064" class="l">.97</text><text x="65.13" y="32.064" class="g">€</text><text x="76.152" y="32.064" class="g">|</text><text y="34.235" class="g">2015-12-30</text><text x="11.022" y="34.235" class="g">14:00</text><text x="17.034" y="34.235" class="g">|</text><text x="26.052" y="34.235" class="g">good-inc</text><text x="35.07" y="34.235" class="g">-&gt;</text><text x="49.098" y="34.235" class="g">anna</text><text x="54.108" y="34.235" class="g">:</text><text x="58.116" y="34.235" class="k">220</text><text x="65.13" y="34.235" class="g">€</text><text x="76.152" y="34.235" class="g">|</text><text y="36.406" class="g">2016-03-14</text><text x="11.022" y="36.406" class="g">08:43</text><text x="17.034" y="36.406" class="g">|</text><text x="30.06" y="36.406" class="g">anna</text><text x="35.07" y="36.406" class="g">-&gt;</text><text x="47.094" y="36.406" class="g">bakery</text><text x="54.108" y="36.406" class="g">:</text><text x="60.12" y="36.406" class="k">7</text><text x="61.122" y="36.406" class="l">.29</text><text x="65.13" y="36.406" class="g">€</text><text x="76.152" y="36.406" class="g">|</text><text y="38.577" class="g">2016-04-24</text><text x="11.022" y="38.577" class="g">23:43</text><text x="17.034" y="38.577" class="g">|</text><text x="30.06" y="38.577" class="g">anna</text><text x="35.07" y="38.577" class="g">-&gt;</text><text x="49.098" y="38.577" class="g">john</text><text x="54.108" y="38.577" class="g">:</text><text x="58.116" y="38.577" class="k">219</text><text x="61.122" y="38.577" class="l">.99</text><text x="65.13" y="38.577" class="g">€</text><text x="76.152" y="38.577" class="g">|</text></svg></svg></g></svg></svg>