<svg
  xmlns="http://www.w3.org/2000/svg"
  xmlns:xlink="http://www.w3.org/1999/xlink"
  width="825"
  height="425"
>
  <rect width="825" height="425" rx="5" ry="5" fill="#141414"/>

  <circle cx="20" cy="20" r="8.5" fill="#ff5f58"/>
  <circle cx="47" cy="20" r="8.5" fill="#ffbd2e"/>
  <circle cx="74" cy="20" r="8.5" fill="#18c132"/>

  <svg
    xmlns="http://www.w3.org/2000/svg"
    xmlns:xlink="http://www.w3.org/1999/xlink"
    height="434.2"
    width="800"
    viewBox="0 0 80 43.42"
    x="12.5"
    y="40"
  >
    <g
      font-size="1.67"
      font-family="'Source Code Pro',Monaco,Consolas,Menlo,monospace"
    >
      <defs>
        <symbol id="a">
          <path fill="transparent" d="M0 0h80v20H0z"/>
        </symbol>
      </defs>
      <path fill="#141414" d="M0 0h80v43.42H0z"/>
      <svg width="80">
        <svg>
          <use xlink:href="#a"/>
          <text y="3.841" fill="#a8ff60">~/P/transity</text>
          <text x="13.026" y="3.841" fill="#dfdfdf">(master)</text>
          <text x="22.044" y="3.841" fill="#dfdfdf">$</text>
          <text x="24.048" y="3.841" fill="#c397d8">transity</text>
          <text x="33.066" y="3.841" fill="#7aa6da">balance</text>
          <text x="41.082" y="3.841" fill="#7aa6da"
            text-decoration="underline">examples/journal.yaml</text>
          <text x="10.02" y="6.012" fill="#96cbfe">anna</text>
          <text x="21.042" y="6.012" fill="#a8ff60">1</text>
          <text x="30.06" y="6.012" fill="#dfdfdf">evil-machine</text>
          <text x="16.032" y="8.183" fill="#ff6c60">-49978</text>
          <text x="22.044" y="8.183" fill="#7c7c7c">.02</text>
          <text x="30.06" y="8.183" fill="#dfdfdf">€</text>
          <text x="11.022" y="10.354" fill="#96cbfe">ben</text>
          <text x="19.038" y="10.354" fill="#ff6c60">-50</text>
          <text x="30.06" y="10.354" fill="#dfdfdf">$</text>
          <text x="20.04" y="12.525" fill="#ff6c60">-1</text>
          <text x="22.044" y="12.525" fill="#7c7c7c">.432592</text>
          <text x="30.06" y="12.525" fill="#dfdfdf">BTC</text>
          <text x="18.036" y="14.696" fill="#ff6c60">-100</text>
          <text x="30.06" y="14.696" fill="#dfdfdf">€</text>
          <text x="5.01" y="16.867" fill="#96cbfe">evil-corp</text>
          <text x="20.04" y="16.867" fill="#ff6c60">-1</text>
          <text x="30.06" y="16.867" fill="#dfdfdf">evil-machine</text>
          <text x="17.034" y="19.038" fill="#a8ff60">50015</text>
          <text x="30.06" y="19.038" fill="#dfdfdf">€</text>
          <text x="6.012" y="21.209" fill="#96cbfe">good-inc</text>
          <text x="18.036" y="21.209" fill="#ff6c60">-100</text>
          <text x="30.06" y="21.209" fill="#dfdfdf">€</text>
          <text x="2.004" y="23.38" fill="#96cbfe">grocery-shop</text>
          <text x="20.04" y="23.38" fill="#a8ff60">11</text>
          <text x="22.044" y="23.38" fill="#7c7c7c">.97</text>
          <text x="30.06" y="23.38" fill="#dfdfdf">€</text>
          <text x="5.01" y="25.551" fill="#96cbfe">john:giro</text>
          <text x="20.04" y="25.551" fill="#a8ff60">50</text>
          <text x="30.06" y="25.551" fill="#dfdfdf">$</text>
          <text x="21.042" y="27.722" fill="#a8ff60">1</text>
          <text x="22.044" y="27.722" fill="#7c7c7c">.432592</text>
          <text x="30.06" y="27.722" fill="#dfdfdf">BTC</text>
          <text x="20.04" y="29.893" fill="#a8ff60">85</text>
          <text x="30.06" y="29.893" fill="#dfdfdf">€</text>
          <text x="3.006" y="32.064" fill="#96cbfe">john:wallet</text>
          <text x="20.04" y="32.064" fill="#a8ff60">66</text>
          <text x="22.044" y="32.064" fill="#7c7c7c">.05</text>
          <text x="30.06" y="32.064" fill="#dfdfdf">€</text>
        </svg>
      </svg>
    </g>
  </svg>
</svg>
